<?xml version="1.0" encoding="utf-8"?>
<!-- Generator: Adobe Illustrator 27.1.0, SVG Export Plug-In . SVG Version: 6.00 Build 0)  -->
<svg version="1.1" id="Capa_1" xmlns="http://www.w3.org/2000/svg" xmlns:xlink="http://www.w3.org/1999/xlink" x="0px" y="0px"
	 viewBox="0 0 250 250" style="enable-background:new 0 0 250 250;" xml:space="preserve">
<style type="text/css">
	.st0{clip-path:url(#SVGID_00000087385590503429796020000005780622697372655002_);fill:#FF0000;}
	.st1{clip-path:url(#SVGID_00000087385590503429796020000005780622697372655002_);}
	.st2{opacity:0.5;fill:#707070;stroke:#707070;stroke-width:3;stroke-linecap:round;stroke-linejoin:round;stroke-miterlimit:10;}
	.st3{fill:#FFFFFF;stroke:#FFFFFF;stroke-width:3;stroke-linecap:round;stroke-linejoin:round;stroke-miterlimit:10;}
	.st4{opacity:0.5;fill:#FFFFFF;stroke:#FFFFFF;stroke-width:3;stroke-linecap:round;stroke-linejoin:round;stroke-miterlimit:10;}
</style>
<g>
	<defs>
		<circle id="SVGID_1_" cx="122.96" cy="117.52" r="101.74"/>
	</defs>
	<clipPath id="SVGID_00000118359829632592483020000007686635687519155586_">
		<use xlink:href="#SVGID_1_"  style="overflow:visible;"/>
	</clipPath>
	
		<circle style="clip-path:url(#SVGID_00000118359829632592483020000007686635687519155586_);fill:#FF0000;" cx="123.43" cy="117.52" r="101.74"/>
	<g style="clip-path:url(#SVGID_00000118359829632592483020000007686635687519155586_);">
		<path class="st2" d="M174.48,3.43c-31.04,44.46-62.09,88.92-93.13,133.39h61.8L117.53,221l99.21-126.07l-60.17-1.61
			C162.54,63.36,168.51,33.4,174.48,3.43z"/>
		<path class="st3" d="M122.3,2.43C91.26,46.9,60.22,91.36,29.17,135.82h61.8L65.36,220l99.21-126.07l-60.17-1.61
			C110.36,62.36,116.33,32.4,122.3,2.43z"/>
		<path class="st4" d="M148.39,2.43C117.35,46.9,86.3,91.36,55.26,135.82h61.8L91.45,220l99.21-126.07l-60.17-1.61
			C136.45,62.36,142.42,32.4,148.39,2.43z"/>
	</g>
</g>
</svg>
