<?xml version="1.0" encoding="utf-8"?>
<!-- Generator: Adobe Illustrator 27.1.0, SVG Export Plug-In . SVG Version: 6.00 Build 0)  -->
<svg version="1.1" id="Capa_1" xmlns="http://www.w3.org/2000/svg" xmlns:xlink="http://www.w3.org/1999/xlink" x="0px" y="0px"
	 viewBox="0 0 50 50" style="enable-background:new 0 0 50 50;" xml:space="preserve">
<style type="text/css">
	.st0{fill:#FF000D;}
	.st1{fill:#FFFFFF;}
</style>
<g>
	<path class="st0" d="M3.01,24.55c0-3.27,0.01-6.55-0.01-9.82c0-0.65,0.31-1.07,0.91-1.37c2.47-1.23,4.94-2.48,7.41-3.72
		c2.54-1.28,5.08-2.55,7.62-3.83c1.69-0.85,3.38-1.73,5.07-2.58c0.55-0.28,1.16-0.32,1.73-0.05c1.35,0.66,2.69,1.34,4.02,2.01
		c1.12,0.56,2.23,1.13,3.34,1.69c2.42,1.23,4.84,2.46,7.27,3.69c1.43,0.72,2.87,1.42,4.3,2.13c0.52,0.26,1.04,0.52,1.56,0.8
		c0.53,0.29,0.75,0.75,0.75,1.29c0.01,6.37,0.02,12.74-0.01,19.11c-0.01,1.51-0.83,2.65-2.31,3.38c-2.09,1.03-4.18,2.07-6.27,3.12
		c-2.74,1.38-5.47,2.77-8.2,4.15c-1.45,0.74-2.9,1.49-4.36,2.22c-0.56,0.28-1.15,0.31-1.71,0.03c-2.46-1.23-4.91-2.48-7.36-3.73
		c-2.53-1.28-5.06-2.55-7.59-3.83c-1.44-0.73-2.9-1.44-4.32-2.2c-1.17-0.62-1.84-1.57-1.85-2.82C3,31,3.01,27.77,3.01,24.55z"/>
	<path class="st1" d="M6.39,17.41c1.47,0.75,2.89,1.47,4.31,2.19c2.14,1.08,4.27,2.16,6.41,3.24c1.41,0.71,2.83,1.41,4.24,2.12
		c0.58,0.29,1.15,0.6,1.74,0.87c0.29,0.13,0.2,0.34,0.2,0.53c0,4.23,0,8.46,0,12.69c0,1.09-0.01,2.17,0.01,3.26
		c0,0.35,0,0.54-0.48,0.3c-2.79-1.42-5.6-2.81-8.4-4.22c-2.22-1.11-4.43-2.23-6.65-3.35c-0.03-0.01-0.06-0.02-0.1-0.03
		c-1.14-0.37-1.34-1.11-1.33-2.15C6.43,27.72,6.39,22.6,6.39,17.41z"/>
	<path class="st1" d="M43.61,17.38c0,0.21,0,0.38,0,0.55c0,5.17-0.01,10.34,0.01,15.52c0,0.6-0.23,0.96-0.83,1.25
		c-2.13,1.04-4.22,2.13-6.33,3.2c-1.46,0.73-2.93,1.44-4.38,2.17c-1.72,0.87-3.44,1.75-5.16,2.63c-0.06,0.03-0.12,0.04-0.22,0.07
		c0-0.22,0-0.42,0-0.62c0-5.2,0.01-10.41-0.02-15.61c0-0.5,0.17-0.77,0.61-0.98c1.78-0.88,3.56-1.75,5.33-2.65
		c2.35-1.19,4.69-2.39,7.04-3.58C40.94,18.68,42.23,18.06,43.61,17.38z"/>
	<path class="st1" d="M8.19,14.75c0.75-0.38,1.49-0.77,2.23-1.14c2.17-1.1,4.33-2.2,6.5-3.29c1.75-0.88,3.52-1.74,5.28-2.61
		c0.77-0.39,1.53-0.8,2.3-1.2c0.24-0.13,0.48-0.19,0.78-0.04c1.98,1.02,3.98,2.03,5.97,3.03c1.44,0.73,2.9,1.43,4.34,2.16
		c2.04,1.02,4.07,2.06,6.14,3.11c-2.99,1.5-5.94,2.98-8.9,4.46c-2.21,1.11-4.43,2.23-6.64,3.35c-0.21,0.1-0.44,0.18-0.62,0.31
		c-0.45,0.33-0.84,0.21-1.3-0.02c-2.85-1.45-5.72-2.88-8.58-4.32C13.2,17.29,10.71,16.02,8.19,14.75z"/>
</g>
<polygon class="st0" points="25.73,24.97 25.73,44.49 44.65,34.73 44.65,16.26 "/>
</svg>
