<?xml version="1.0" encoding="utf-8"?>
<!-- Generator: Adobe Illustrator 27.1.0, SVG Export Plug-In . SVG Version: 6.00 Build 0)  -->
<svg version="1.1" id="Capa_1" xmlns="http://www.w3.org/2000/svg" xmlns:xlink="http://www.w3.org/1999/xlink" x="0px" y="0px"
	 viewBox="0 0 250 250" style="enable-background:new 0 0 250 250;" xml:space="preserve">
<style type="text/css">
	.st0{fill:#FF4F4F;}
	.st1{opacity:0.39;fill:#FFFFFF;stroke:#FFFFFF;stroke-width:3;stroke-linecap:round;stroke-linejoin:round;stroke-miterlimit:10;}
	.st2{fill:#FFFFFF;stroke:#FFFFFF;stroke-width:3;stroke-linecap:round;stroke-linejoin:round;stroke-miterlimit:10;}
	.st3{opacity:0.75;fill:#FFFFFF;stroke:#FFFFFF;stroke-width:3;stroke-linecap:round;stroke-linejoin:round;stroke-miterlimit:10;}
</style>
<g>
	<ellipse class="st0" cx="125" cy="121.09" rx="103.31" ry="101.57"/>
	<g>
		<path class="st1" d="M164.68,38.88C141.51,72.59,118.34,106.29,95.17,140h46.13l-19.12,63.82l74.05-95.57l-44.91-1.22
			C155.77,84.31,160.22,61.59,164.68,38.88z"/>
		<path class="st2" d="M127.81,39.4c-23.17,33.71-46.34,67.41-69.51,101.12h46.13l-19.12,63.82l74.05-95.57l-44.91-1.22
			C118.9,84.83,123.35,62.12,127.81,39.4z"/>
		<path class="st3" d="M145.33,38.88C122.16,72.59,98.99,106.29,75.82,140h46.13l-19.12,63.82l74.05-95.57l-44.91-1.22
			C136.42,84.31,140.87,61.59,145.33,38.88z"/>
	</g>
</g>
</svg>
