<?xml version="1.0" encoding="utf-8"?>
<!-- Generator: Adobe Illustrator 27.1.0, SVG Export Plug-In . SVG Version: 6.00 Build 0)  -->
<svg version="1.1" xmlns="http://www.w3.org/2000/svg" xmlns:xlink="http://www.w3.org/1999/xlink" x="0px" y="0px"
	 viewBox="0 0 70 64" style="enable-background:new 0 0 70 64;" xml:space="preserve">
<style type="text/css">
	.st0{display:none;}
	.st1{display:inline;}
	.st2{fill:#FF000D;}
	.st3{fill:#FFFFFF;}
	.st4{display:inline;fill:#FF000D;}
	.st5{fill:none;stroke:#FF000D;stroke-width:5;stroke-miterlimit:10;}
</style>
<g id="Capa_1" class="st0">
	<g class="st1">
		<path class="st2" d="M3.01,38.55c0-3.27,0.01-6.55-0.01-9.82c0-0.65,0.31-1.07,0.91-1.37c2.47-1.23,4.94-2.48,7.41-3.72
			c2.54-1.28,5.08-2.55,7.62-3.83c1.69-0.85,3.38-1.73,5.07-2.58c0.55-0.28,1.16-0.32,1.73-0.05c1.35,0.66,2.69,1.34,4.02,2.01
			c1.12,0.56,2.23,1.13,3.34,1.69c2.42,1.23,4.84,2.46,7.27,3.69c1.43,0.72,2.87,1.42,4.3,2.13c0.52,0.26,1.04,0.52,1.56,0.8
			c0.53,0.29,0.75,0.75,0.75,1.29c0.01,6.37,0.02,12.74-0.01,19.11c-0.01,1.51-0.83,2.65-2.31,3.38c-2.09,1.03-4.18,2.07-6.27,3.12
			c-2.74,1.38-5.47,2.77-8.2,4.15c-1.45,0.74-2.9,1.49-4.36,2.22c-0.56,0.28-1.15,0.31-1.71,0.03c-2.46-1.23-4.91-2.48-7.36-3.73
			c-2.53-1.28-5.06-2.55-7.59-3.83c-1.44-0.73-2.9-1.44-4.32-2.2c-1.17-0.62-1.84-1.57-1.85-2.82C3,45,3.01,41.77,3.01,38.55z"/>
		<path class="st3" d="M6.39,31.41c1.47,0.75,2.89,1.47,4.31,2.19c2.14,1.08,4.27,2.16,6.41,3.24c1.41,0.71,2.83,1.41,4.24,2.12
			c0.58,0.29,1.15,0.6,1.74,0.87c0.29,0.13,0.2,0.34,0.2,0.53c0,4.23,0,8.46,0,12.69c0,1.09-0.01,2.17,0.01,3.26
			c0,0.35,0,0.54-0.48,0.3c-2.79-1.42-5.6-2.81-8.4-4.22c-2.22-1.11-4.43-2.23-6.65-3.35c-0.03-0.01-0.06-0.02-0.1-0.03
			c-1.14-0.37-1.34-1.11-1.33-2.15C6.43,41.72,6.39,36.6,6.39,31.41z"/>
		<path class="st3" d="M43.61,31.38c0,0.21,0,0.38,0,0.55c0,5.17-0.01,10.34,0.01,15.52c0,0.6-0.23,0.96-0.83,1.25
			c-2.13,1.04-4.22,2.13-6.33,3.2c-1.46,0.73-2.93,1.44-4.38,2.17c-1.72,0.87-3.44,1.75-5.16,2.63c-0.06,0.03-0.12,0.04-0.22,0.07
			c0-0.22,0-0.42,0-0.62c0-5.2,0.01-10.41-0.02-15.61c0-0.5,0.17-0.77,0.61-0.98c1.78-0.88,3.56-1.75,5.33-2.65
			c2.35-1.19,4.69-2.39,7.04-3.58C40.94,32.68,42.23,32.06,43.61,31.38z"/>
		<path class="st3" d="M8.19,28.75c0.75-0.38,1.49-0.77,2.23-1.14c2.17-1.1,4.33-2.2,6.5-3.29c1.75-0.88,3.52-1.74,5.28-2.61
			c0.77-0.39,1.53-0.8,2.3-1.2c0.24-0.13,0.48-0.19,0.78-0.04c1.98,1.02,3.98,2.03,5.97,3.03c1.44,0.73,2.9,1.43,4.34,2.16
			c2.04,1.02,4.07,2.06,6.14,3.11c-2.99,1.5-5.94,2.98-8.9,4.46c-2.21,1.11-4.43,2.23-6.64,3.35c-0.21,0.1-0.44,0.18-0.62,0.31
			c-0.45,0.33-0.84,0.21-1.3-0.02c-2.85-1.45-5.72-2.88-8.58-4.32C13.2,31.29,10.71,30.02,8.19,28.75z"/>
	</g>
	<polygon class="st4" points="25.73,38.97 25.73,58.49 44.65,48.73 44.65,30.26 	"/>
</g>
<g id="Capa_2">
	<ellipse class="st5" cx="33.98" cy="25.99" rx="20.53" ry="20.21"/>
	<g>
		<g>
			<path class="st2" d="M32.86,40.62V37.2c-2.36-0.1-4.68-0.77-6.01-1.54l1.05-4.2c1.5,0.81,3.59,1.58,5.88,1.58
				c2.02,0,3.4-0.81,3.4-2.23c0-1.38-1.14-2.22-3.77-3.12c-3.79-1.3-6.37-3.11-6.37-6.58c0-3.18,2.19-5.67,5.98-6.41v-3.42h3.48
				v3.18c2.34,0.08,3.94,0.61,5.13,1.18l-1.06,4.06c-0.9-0.41-2.54-1.24-5.08-1.24c-2.28,0-3.03,1.03-3.03,2.03
				c0,1.17,1.23,1.95,4.24,3.07c4.22,1.5,5.9,3.48,5.9,6.74c0,3.2-2.21,5.9-6.28,6.62v3.69H32.86z"/>
		</g>
	</g>
	<g>
		<path class="st2" d="M6.2,7.22c0.13,0,0.2-0.12,0.25-0.28C6.46,6.9,6.46,6.85,6.46,6.81c0-2.11,0-4.23,0-6.34
			c0-0.04,0.01-0.08-0.01-0.12c0.04-0.22,0.11-0.31,0.26-0.33C6.72,0.02,6.73,0.01,6.73,0c1.17,0,2.35,0,3.52,0
			c0.06,0.08,0.14,0.09,0.19,0.19c0.03,0.06,0.02,0.13,0.05,0.18c0.01,0.04,0.01,0.07,0.01,0.11c0,2.12,0,4.24,0,6.36
			c0,0.04,0,0.08-0.01,0.11c0.03,0.18,0.09,0.24,0.24,0.25c0.03,0.02,0.06,0.01,0.1,0.01c0.52,0,1.05,0,1.57,0
			c0.03,0,0.06-0.01,0.1,0.01c0.16,0,0.27,0.14,0.3,0.34c0.02,0.17-0.06,0.27-0.13,0.35c-0.17,0.22-0.35,0.42-0.52,0.63
			c-0.17,0.2-0.33,0.39-0.5,0.59c-0.13,0.15-0.25,0.31-0.38,0.46c-0.21,0.25-0.42,0.49-0.62,0.74c-0.13,0.15-0.25,0.3-0.37,0.45
			c-0.21,0.25-0.42,0.5-0.63,0.75C9.53,11.7,9.41,11.85,9.28,12c-0.19,0.23-0.38,0.49-0.58,0.69c-0.18,0.18-0.33,0.19-0.52-0.05
			c-0.21-0.26-0.43-0.5-0.63-0.76c-0.12-0.15-0.25-0.3-0.38-0.45C7,11.22,6.82,11.02,6.65,10.81c-0.16-0.19-0.32-0.39-0.48-0.58
			c-0.21-0.25-0.42-0.5-0.63-0.75C5.38,9.29,5.22,9.09,5.06,8.9C4.89,8.69,4.71,8.49,4.54,8.28C4.42,8.14,4.31,8,4.19,7.86
			c-0.1-0.12-0.08-0.41,0.03-0.53c0.07-0.08,0.15-0.09,0.23-0.12C4.46,7.23,4.48,7.22,4.5,7.22c0.55,0,1.09,0,1.64,0
			C6.16,7.22,6.18,7.23,6.2,7.22z"/>
	</g>
	<g>
		<path class="st2" d="M62.19,30.38c0.1,0,0.15-0.09,0.18-0.21c0.01-0.03,0-0.06,0-0.09c0-1.61,0-3.21,0-4.82c0-0.03,0-0.06,0-0.09
			c0.03-0.17,0.08-0.24,0.19-0.25c0-0.01,0.01-0.01,0.01-0.02c0.85,0,1.71,0,2.56,0c0.04,0.06,0.1,0.07,0.14,0.15
			c0.02,0.05,0.01,0.1,0.04,0.14c0.01,0.03,0,0.06,0,0.08c0,1.61,0,3.22,0,4.83c0,0.03,0,0.06,0,0.08c0.02,0.14,0.07,0.18,0.18,0.19
			c0.02,0.01,0.05,0.01,0.07,0.01c0.38,0,0.76,0,1.14,0c0.02,0,0.05-0.01,0.07,0.01c0.11,0,0.2,0.1,0.22,0.26
			c0.02,0.13-0.04,0.2-0.09,0.27c-0.12,0.17-0.25,0.32-0.38,0.48c-0.12,0.15-0.24,0.3-0.36,0.44c-0.09,0.12-0.18,0.24-0.28,0.35
			c-0.15,0.19-0.3,0.37-0.45,0.56c-0.09,0.11-0.18,0.23-0.27,0.35c-0.15,0.19-0.31,0.38-0.46,0.57c-0.09,0.11-0.18,0.23-0.27,0.35
			c-0.14,0.18-0.27,0.37-0.42,0.53c-0.13,0.14-0.24,0.15-0.38-0.04c-0.15-0.2-0.31-0.38-0.46-0.58c-0.09-0.12-0.18-0.23-0.27-0.34
			c-0.13-0.16-0.25-0.31-0.38-0.47c-0.12-0.15-0.23-0.3-0.35-0.44c-0.15-0.19-0.31-0.38-0.46-0.57c-0.12-0.15-0.23-0.29-0.35-0.44
			c-0.13-0.16-0.25-0.31-0.38-0.47c-0.08-0.11-0.17-0.21-0.25-0.32c-0.08-0.09-0.06-0.31,0.02-0.4c0.05-0.06,0.11-0.07,0.16-0.09
			c0.01,0.01,0.03,0.01,0.04,0.01c0.4,0,0.8,0,1.19,0C62.16,30.39,62.17,30.39,62.19,30.38z"/>
	</g>
	<g>
		<path class="st2" d="M29.68,57.79c0.27,0,0.41-0.12,0.51-0.28c0.02-0.04,0.01-0.08,0.01-0.12c0-2.11,0-4.23,0-6.34
			c0-0.04,0.01-0.08-0.01-0.12c0.08-0.22,0.23-0.31,0.53-0.33c0.01-0.01,0.03-0.01,0.04-0.02c2.39,0,4.78,0,7.17,0
			c0.12,0.08,0.29,0.09,0.4,0.19c0.06,0.06,0.03,0.13,0.11,0.18c0.02,0.04,0.01,0.07,0.01,0.11c0,2.12,0,4.24,0,6.36
			c0,0.04,0.01,0.08-0.01,0.11c0.06,0.18,0.18,0.24,0.5,0.25c0.06,0.02,0.13,0.01,0.2,0.01c1.07,0,2.13,0,3.2,0
			c0.06,0,0.13-0.01,0.19,0.01c0.32,0,0.55,0.14,0.62,0.34c0.05,0.17-0.12,0.27-0.26,0.35c-0.34,0.22-0.7,0.42-1.06,0.63
			c-0.34,0.2-0.68,0.39-1.01,0.59c-0.26,0.15-0.52,0.31-0.78,0.46c-0.42,0.25-0.85,0.49-1.27,0.74c-0.26,0.15-0.51,0.3-0.76,0.45
			c-0.43,0.25-0.85,0.5-1.28,0.75c-0.26,0.15-0.51,0.3-0.76,0.46c-0.39,0.23-0.77,0.49-1.19,0.69c-0.36,0.18-0.67,0.19-1.07-0.05
			c-0.42-0.26-0.87-0.5-1.29-0.76c-0.25-0.15-0.51-0.3-0.77-0.45c-0.35-0.21-0.71-0.41-1.06-0.62c-0.33-0.19-0.65-0.39-0.98-0.58
			c-0.43-0.25-0.85-0.5-1.28-0.75c-0.33-0.19-0.65-0.39-0.98-0.58c-0.35-0.21-0.71-0.41-1.06-0.62c-0.24-0.14-0.47-0.28-0.71-0.42
			c-0.21-0.12-0.16-0.41,0.06-0.53c0.14-0.08,0.3-0.09,0.46-0.12c0.04,0.01,0.08,0.01,0.12,0.01c1.11,0,2.23,0,3.34,0
			C29.6,57.8,29.64,57.8,29.68,57.79z"/>
	</g>
</g>
</svg>
