<svg width="79" height="30" viewBox="0 0 79 30" fill="none" xmlns="http://www.w3.org/2000/svg">
<g filter="url(#filter0_d_83_19)">
<path d="M15.4101 5.57395C15.4706 5.39104 15.7294 5.39104 15.7899 5.57395L16.8119 8.66322C16.839 8.74511 16.9155 8.80041 17.0018 8.80041H20.3013C20.4959 8.80041 20.5759 9.05017 20.4175 9.16321L17.7543 11.0635C17.683 11.1145 17.6531 11.2059 17.6806 11.2892L18.6993 14.3684C18.7601 14.552 18.5507 14.7063 18.3933 14.594L15.7162 12.6837C15.6467 12.6341 15.5533 12.6341 15.4838 12.6837L12.8067 14.594C12.6493 14.7063 12.4399 14.552 12.5007 14.3684L13.5194 11.2892C13.5469 11.2059 13.517 11.1145 13.4457 11.0635L10.7825 9.16321C10.6241 9.05016 10.7041 8.80041 10.8987 8.80041H14.1982C14.2845 8.80041 14.361 8.74511 14.3881 8.66322L15.4101 5.57395Z" fill="#FF9400"/>
<path d="M15.7424 5.58966L16.7644 8.67893C16.7983 8.78129 16.894 8.85041 17.0018 8.85041H20.3013C20.4473 8.85041 20.5073 9.03773 20.3884 9.12251L17.7253 11.0228C17.6361 11.0865 17.5987 11.2008 17.6332 11.3049L18.6518 14.3841C18.6974 14.5218 18.5404 14.6376 18.4223 14.5533L15.7452 12.643C15.6583 12.581 15.5417 12.581 15.4548 12.643L12.7777 14.5533C12.6596 14.6376 12.5026 14.5218 12.5482 14.3841L13.5668 11.3049C13.6013 11.2008 13.5639 11.0865 13.4747 11.0228L10.8116 9.12251C10.6927 9.03773 10.7527 8.85041 10.8987 8.85041H14.1982C14.306 8.85041 14.4017 8.78129 14.4356 8.67893L15.4576 5.58966C15.503 5.45247 15.697 5.45247 15.7424 5.58966Z" stroke="#FD8B00" stroke-width="0.1"/>
</g>
<g filter="url(#filter1_d_83_19)">
<path d="M27.4101 5.57395C27.4706 5.39104 27.7294 5.39104 27.7899 5.57395L28.8119 8.66322C28.839 8.74511 28.9155 8.80041 29.0018 8.80041H32.3013C32.4959 8.80041 32.5759 9.05017 32.4175 9.16321L29.7543 11.0635C29.683 11.1145 29.6531 11.2059 29.6806 11.2892L30.6993 14.3684C30.7601 14.552 30.5507 14.7063 30.3933 14.594L27.7162 12.6837C27.6467 12.6341 27.5533 12.6341 27.4838 12.6837L24.8067 14.594C24.6493 14.7063 24.4399 14.552 24.5007 14.3684L25.5194 11.2892C25.5469 11.2059 25.517 11.1145 25.4457 11.0635L22.7825 9.16321C22.6241 9.05016 22.7041 8.80041 22.8987 8.80041H26.1982C26.2845 8.80041 26.361 8.74511 26.3881 8.66322L27.4101 5.57395Z" fill="#FF9400"/>
<path d="M27.7424 5.58966L28.7644 8.67893C28.7983 8.78129 28.894 8.85041 29.0018 8.85041H32.3013C32.4473 8.85041 32.5073 9.03773 32.3884 9.12251L29.7253 11.0228C29.6361 11.0865 29.5987 11.2008 29.6332 11.3049L30.6518 14.3841C30.6974 14.5218 30.5404 14.6376 30.4223 14.5533L27.7452 12.643C27.6583 12.581 27.5417 12.581 27.4548 12.643L24.7777 14.5533C24.6596 14.6376 24.5026 14.5218 24.5482 14.3841L25.5668 11.3049C25.6013 11.2008 25.5639 11.0865 25.4747 11.0228L22.8116 9.12251C22.6927 9.03773 22.7527 8.85041 22.8987 8.85041H26.1982C26.306 8.85041 26.4017 8.78129 26.4356 8.67893L27.4576 5.58966C27.503 5.45247 27.697 5.45247 27.7424 5.58966Z" stroke="#FD8B00" stroke-width="0.1"/>
</g>
<g filter="url(#filter2_d_83_19)">
<path d="M39.4101 5.57395C39.4706 5.39104 39.7294 5.39104 39.7899 5.57395L40.8119 8.66322C40.839 8.74511 40.9155 8.80041 41.0018 8.80041H44.3013C44.4959 8.80041 44.5759 9.05017 44.4175 9.16321L41.7543 11.0635C41.683 11.1145 41.6531 11.2059 41.6806 11.2892L42.6993 14.3684C42.7601 14.552 42.5507 14.7063 42.3933 14.594L39.7162 12.6837C39.6467 12.6341 39.5533 12.6341 39.4838 12.6837L36.8067 14.594C36.6493 14.7063 36.4399 14.552 36.5007 14.3684L37.5194 11.2892C37.5469 11.2059 37.517 11.1145 37.4457 11.0635L34.7825 9.16321C34.6241 9.05016 34.7041 8.80041 34.8987 8.80041H38.1982C38.2845 8.80041 38.361 8.74511 38.3881 8.66322L39.4101 5.57395Z" fill="#FF9400"/>
<path d="M39.7424 5.58966L40.7644 8.67893C40.7983 8.78129 40.894 8.85041 41.0018 8.85041H44.3013C44.4473 8.85041 44.5073 9.03773 44.3884 9.12251L41.7253 11.0228C41.6361 11.0865 41.5987 11.2008 41.6332 11.3049L42.6518 14.3841C42.6974 14.5218 42.5404 14.6376 42.4223 14.5533L39.7452 12.643C39.6583 12.581 39.5417 12.581 39.4548 12.643L36.7777 14.5533C36.6596 14.6376 36.5026 14.5218 36.5482 14.3841L37.5668 11.3049C37.6013 11.2008 37.5639 11.0865 37.4747 11.0228L34.8116 9.12251C34.6927 9.03773 34.7527 8.85041 34.8987 8.85041H38.1982C38.306 8.85041 38.4017 8.78129 38.4356 8.67893L39.4576 5.58966C39.503 5.45247 39.697 5.45247 39.7424 5.58966Z" stroke="#FD8B00" stroke-width="0.1"/>
</g>
<g filter="url(#filter3_d_83_19)">
<path d="M51.4101 5.57395C51.4706 5.39104 51.7294 5.39104 51.7899 5.57395L52.8119 8.66322C52.839 8.74511 52.9155 8.80041 53.0018 8.80041H56.3013C56.4959 8.80041 56.5759 9.05017 56.4175 9.16321L53.7543 11.0635C53.683 11.1145 53.6531 11.2059 53.6806 11.2892L54.6993 14.3684C54.7601 14.552 54.5507 14.7063 54.3933 14.594L51.7162 12.6837C51.6467 12.6341 51.5533 12.6341 51.4838 12.6837L48.8067 14.594C48.6493 14.7063 48.4399 14.552 48.5007 14.3684L49.5194 11.2892C49.5469 11.2059 49.517 11.1145 49.4457 11.0635L46.7825 9.16321C46.6241 9.05016 46.7041 8.80041 46.8987 8.80041H50.1982C50.2845 8.80041 50.361 8.74511 50.3881 8.66322L51.4101 5.57395Z" fill="#FF9400"/>
<path d="M51.7424 5.58966L52.7644 8.67893C52.7983 8.78129 52.894 8.85041 53.0018 8.85041H56.3013C56.4473 8.85041 56.5073 9.03773 56.3884 9.12251L53.7253 11.0228C53.6361 11.0865 53.5987 11.2008 53.6332 11.3049L54.6518 14.3841C54.6974 14.5218 54.5404 14.6376 54.4223 14.5533L51.7452 12.643C51.6583 12.581 51.5417 12.581 51.4548 12.643L48.7777 14.5533C48.6596 14.6376 48.5026 14.5218 48.5482 14.3841L49.5668 11.3049C49.6013 11.2008 49.5639 11.0865 49.4747 11.0228L46.8116 9.12251C46.6927 9.03773 46.7527 8.85041 46.8987 8.85041H50.1982C50.306 8.85041 50.4017 8.78129 50.4356 8.67893L51.4576 5.58966C51.503 5.45247 51.697 5.45247 51.7424 5.58966Z" stroke="#FD8B00" stroke-width="0.1"/>
</g>
<g filter="url(#filter4_d_83_19)">
<path d="M63.136 5.57395C63.1965 5.39104 63.4553 5.39104 63.5158 5.57395L64.5378 8.66322C64.5649 8.74511 64.6414 8.80041 64.7277 8.80041H68.0272C68.2218 8.80041 68.3018 9.05017 68.1434 9.16321L65.4803 11.0635C65.4089 11.1145 65.379 11.2059 65.4065 11.2892L66.4252 14.3684C66.486 14.552 66.2766 14.7063 66.1192 14.594L63.4421 12.6837C63.3726 12.6341 63.2793 12.6341 63.2097 12.6837L60.5326 14.594C60.3752 14.7063 60.1658 14.552 60.2266 14.3684L61.2453 11.2892C61.2728 11.2059 61.2429 11.1145 61.1716 11.0635L58.5084 9.16321C58.35 9.05016 58.43 8.80041 58.6246 8.80041H61.9241C62.0104 8.80041 62.0869 8.74511 62.114 8.66322L63.136 5.57395Z" fill="#FF9400"/>
<path d="M63.4683 5.58966L64.4903 8.67893C64.5242 8.78129 64.6199 8.85041 64.7277 8.85041H68.0272C68.1732 8.85041 68.2332 9.03773 68.1144 9.12251L65.4512 11.0228C65.362 11.0865 65.3247 11.2008 65.3591 11.3049L66.3778 14.3841C66.4233 14.5218 66.2663 14.6376 66.1482 14.5533L63.4711 12.643C63.3842 12.581 63.2676 12.581 63.1807 12.643L60.5036 14.5533C60.3855 14.6376 60.2285 14.5218 60.2741 14.3841L61.2928 11.3049C61.3272 11.2008 61.2898 11.0865 61.2006 11.0228L58.5375 9.12251C58.4187 9.03773 58.4786 8.85041 58.6246 8.85041H61.9241C62.032 8.85041 62.1276 8.78129 62.1615 8.67893L63.1835 5.58966C63.2289 5.45247 63.4229 5.45247 63.4683 5.58966Z" stroke="#FD8B00" stroke-width="0.1"/>
</g>
<defs>
<filter id="filter0_d_83_19" x="0.698242" y="0.436768" width="29.8035" height="29.1953" filterUnits="userSpaceOnUse" color-interpolation-filters="sRGB">
<feFlood flood-opacity="0" result="BackgroundImageFix"/>
<feColorMatrix in="SourceAlpha" type="matrix" values="0 0 0 0 0 0 0 0 0 0 0 0 0 0 0 0 0 0 127 0" result="hardAlpha"/>
<feOffset dy="5"/>
<feGaussianBlur stdDeviation="5"/>
<feComposite in2="hardAlpha" operator="out"/>
<feColorMatrix type="matrix" values="0 0 0 0 0 0 0 0 0 0 0 0 0 0 0 0 0 0 0.15 0"/>
<feBlend mode="normal" in2="BackgroundImageFix" result="effect1_dropShadow_83_19"/>
<feBlend mode="normal" in="SourceGraphic" in2="effect1_dropShadow_83_19" result="shape"/>
</filter>
<filter id="filter1_d_83_19" x="12.6982" y="0.436768" width="29.8035" height="29.1953" filterUnits="userSpaceOnUse" color-interpolation-filters="sRGB">
<feFlood flood-opacity="0" result="BackgroundImageFix"/>
<feColorMatrix in="SourceAlpha" type="matrix" values="0 0 0 0 0 0 0 0 0 0 0 0 0 0 0 0 0 0 127 0" result="hardAlpha"/>
<feOffset dy="5"/>
<feGaussianBlur stdDeviation="5"/>
<feComposite in2="hardAlpha" operator="out"/>
<feColorMatrix type="matrix" values="0 0 0 0 0 0 0 0 0 0 0 0 0 0 0 0 0 0 0.15 0"/>
<feBlend mode="normal" in2="BackgroundImageFix" result="effect1_dropShadow_83_19"/>
<feBlend mode="normal" in="SourceGraphic" in2="effect1_dropShadow_83_19" result="shape"/>
</filter>
<filter id="filter2_d_83_19" x="24.6982" y="0.436768" width="29.8035" height="29.1953" filterUnits="userSpaceOnUse" color-interpolation-filters="sRGB">
<feFlood flood-opacity="0" result="BackgroundImageFix"/>
<feColorMatrix in="SourceAlpha" type="matrix" values="0 0 0 0 0 0 0 0 0 0 0 0 0 0 0 0 0 0 127 0" result="hardAlpha"/>
<feOffset dy="5"/>
<feGaussianBlur stdDeviation="5"/>
<feComposite in2="hardAlpha" operator="out"/>
<feColorMatrix type="matrix" values="0 0 0 0 0 0 0 0 0 0 0 0 0 0 0 0 0 0 0.15 0"/>
<feBlend mode="normal" in2="BackgroundImageFix" result="effect1_dropShadow_83_19"/>
<feBlend mode="normal" in="SourceGraphic" in2="effect1_dropShadow_83_19" result="shape"/>
</filter>
<filter id="filter3_d_83_19" x="36.6982" y="0.436768" width="29.8035" height="29.1953" filterUnits="userSpaceOnUse" color-interpolation-filters="sRGB">
<feFlood flood-opacity="0" result="BackgroundImageFix"/>
<feColorMatrix in="SourceAlpha" type="matrix" values="0 0 0 0 0 0 0 0 0 0 0 0 0 0 0 0 0 0 127 0" result="hardAlpha"/>
<feOffset dy="5"/>
<feGaussianBlur stdDeviation="5"/>
<feComposite in2="hardAlpha" operator="out"/>
<feColorMatrix type="matrix" values="0 0 0 0 0 0 0 0 0 0 0 0 0 0 0 0 0 0 0.15 0"/>
<feBlend mode="normal" in2="BackgroundImageFix" result="effect1_dropShadow_83_19"/>
<feBlend mode="normal" in="SourceGraphic" in2="effect1_dropShadow_83_19" result="shape"/>
</filter>
<filter id="filter4_d_83_19" x="48.4243" y="0.436768" width="29.8032" height="29.1953" filterUnits="userSpaceOnUse" color-interpolation-filters="sRGB">
<feFlood flood-opacity="0" result="BackgroundImageFix"/>
<feColorMatrix in="SourceAlpha" type="matrix" values="0 0 0 0 0 0 0 0 0 0 0 0 0 0 0 0 0 0 127 0" result="hardAlpha"/>
<feOffset dy="5"/>
<feGaussianBlur stdDeviation="5"/>
<feComposite in2="hardAlpha" operator="out"/>
<feColorMatrix type="matrix" values="0 0 0 0 0 0 0 0 0 0 0 0 0 0 0 0 0 0 0.15 0"/>
<feBlend mode="normal" in2="BackgroundImageFix" result="effect1_dropShadow_83_19"/>
<feBlend mode="normal" in="SourceGraphic" in2="effect1_dropShadow_83_19" result="shape"/>
</filter>
</defs>
</svg>
