<svg width="31" height="30" viewBox="0 0 31 30" fill="none">
<g filter="url(#filter0_d_151_891)">
<path d="M15.4101 6.57395C15.4706 6.39104 15.7294 6.39104 15.7899 6.57395L16.8119 9.66322C16.839 9.74511 16.9155 9.80041 17.0018 9.80041H20.3013C20.4959 9.80041 20.5759 10.0502 20.4175 10.1632L17.7543 12.0635C17.683 12.1145 17.6531 12.2059 17.6806 12.2892L18.6993 15.3684C18.7601 15.552 18.5507 15.7063 18.3933 15.594L15.7162 13.6837C15.6467 13.6341 15.5533 13.6341 15.4838 13.6837L12.8067 15.594C12.6493 15.7063 12.4399 15.552 12.5007 15.3684L13.5194 12.2892C13.5469 12.2059 13.517 12.1145 13.4457 12.0635L10.7825 10.1632C10.6241 10.0502 10.7041 9.80041 10.8987 9.80041H14.1982C14.2845 9.80041 14.361 9.74511 14.3881 9.66322L15.4101 6.57395Z" fill="#FF9400"/>
<path d="M15.7424 6.58966L16.7644 9.67893C16.7983 9.78129 16.894 9.85041 17.0018 9.85041H20.3013C20.4473 9.85041 20.5073 10.0377 20.3884 10.1225L17.7253 12.0228C17.6361 12.0865 17.5987 12.2008 17.6332 12.3049L18.6518 15.3841C18.6974 15.5218 18.5404 15.6376 18.4223 15.5533L15.7452 13.643C15.6583 13.581 15.5417 13.581 15.4548 13.643L12.7777 15.5533C12.6596 15.6376 12.5026 15.5218 12.5482 15.3841L13.5668 12.3049C13.6013 12.2008 13.5639 12.0865 13.4747 12.0228L10.8116 10.1225C10.6927 10.0377 10.7527 9.85041 10.8987 9.85041H14.1982C14.306 9.85041 14.4017 9.78129 14.4356 9.67893L15.4576 6.58966C15.503 6.45247 15.697 6.45247 15.7424 6.58966Z" stroke="#FD8B00" stroke-width="0.1"/>
</g>
<defs>
<filter id="filter0_d_151_891" x="0.698242" y="0.436768" width="29.8035" height="29.1953" filterUnits="userSpaceOnUse" color-interpolation-filters="sRGB">
<feFlood flood-opacity="0" result="BackgroundImageFix"/>
<feColorMatrix in="SourceAlpha" type="matrix" values="0 0 0 0 0 0 0 0 0 0 0 0 0 0 0 0 0 0 127 0" result="hardAlpha"/>
<feOffset dy="4"/>
<feGaussianBlur stdDeviation="5"/>
<feComposite in2="hardAlpha" operator="out"/>
<feColorMatrix type="matrix" values="0 0 0 0 0 0 0 0 0 0 0 0 0 0 0 0 0 0 0.13 0"/>
<feBlend mode="normal" in2="BackgroundImageFix" result="effect1_dropShadow_151_891"/>
<feBlend mode="normal" in="SourceGraphic" in2="effect1_dropShadow_151_891" result="shape"/>
</filter>
</defs>
</svg>
